<?xml version="1.0" encoding="UTF-8"?>
<svg width="64px" height="64px" viewBox="0 0 64 64" version="1.1" xmlns="http://www.w3.org/2000/svg" xmlns:xlink="http://www.w3.org/1999/xlink">
    <title>Smart Document Icon</title>
    <defs>
        <linearGradient x1="0%" y1="0%" x2="100%" y2="100%" id="documentGradient">
            <stop stop-color="#3b82f6" offset="0%"></stop>
            <stop stop-color="#1d4ed8" offset="100%"></stop>
        </linearGradient>
        <linearGradient x1="0%" y1="0%" x2="100%" y2="100%" id="lineGradient">
            <stop stop-color="#ffffff" offset="0%"></stop>
            <stop stop-color="#f0f9ff" offset="100%"></stop>
        </linearGradient>
    </defs>
    <g stroke="none" stroke-width="1" fill="none" fill-rule="evenodd">
        <g id="document-icon">
            <!-- Document base -->
            <path d="M8,0 L42,0 L56,14 L56,60 C56,62.209139 54.209139,64 52,64 L8,64 C5.790861,64 4,62.209139 4,60 L4,4 C4,1.790861 5.790861,0 8,0 Z" fill="url(#documentGradient)"></path>
            <!-- Document fold -->
            <path d="M42,0 L56,14 L46,14 C43.790861,14 42,12.209139 42,10 L42,0 Z" fill-opacity="0.4" fill="#ffffff"></path>
            <!-- Pixel pattern overlay -->
            <rect fill="#93c5fd" opacity="0.3" x="8" y="8" width="8" height="8"></rect>
            <rect fill="#93c5fd" opacity="0.3" x="24" y="8" width="8" height="8"></rect>
            <rect fill="#93c5fd" opacity="0.3" x="40" y="24" width="8" height="8"></rect>
            <rect fill="#93c5fd" opacity="0.3" x="8" y="24" width="8" height="8"></rect>
            <rect fill="#93c5fd" opacity="0.3" x="24" y="40" width="8" height="8"></rect>
            <rect fill="#93c5fd" opacity="0.3" x="40" y="40" width="8" height="8"></rect>
            <!-- Document content -->
            <rect fill="url(#lineGradient)" x="16" y="22" width="28" height="4" rx="2"></rect>
            <rect fill="url(#lineGradient)" x="16" y="30" width="28" height="4" rx="2"></rect>
            <rect fill="url(#lineGradient)" x="16" y="38" width="28" height="4" rx="2"></rect>
            <rect fill="url(#lineGradient)" x="16" y="46" width="16" height="4" rx="2"></rect>
        </g>
    </g>
</svg> 